<svg width="24" height="19" fill="none" xmlns="http://www.w3.org/2000/svg"><path d="M23.625 8.987c0-.062 0-.131-.003-.212-.002-.226-.008-.48-.013-.75a44.449 44.449 0 00-.116-2.286c-.079-1.007-.195-1.847-.353-2.477a3.951 3.951 0 00-.95-1.74 3.637 3.637 0 00-1.641-1.01C19.802.301 18.34.17 16.284.09a113.27 113.27 0 00-3.071-.079C12.846.006 12.506.003 12.2 0h-.775c-.306.003-.646.006-1.013.011C9.366.025 8.32.051 7.341.09 5.284.173 3.82.304 3.077.513a3.633 3.633 0 00-1.643 1.008 3.947 3.947 0 00-.949 1.74C.325 3.893.211 4.733.132 5.74a44.432 44.432 0 00-.116 2.285c-.008.27-.01.525-.013.75 0 .082-.003.152-.003.213v.156c0 .061 0 .131.003.212.002.226.008.48.013.75.02.78.058 1.555.116 2.286.079 1.007.195 1.847.353 2.477.338 1.337 1.33 2.391 2.592 2.749.744.212 2.207.343 4.264.424.978.039 2.025.064 3.071.078.367.005.707.008 1.013.011h.775c.306-.003.646-.006 1.013-.011a116.82 116.82 0 003.071-.078c2.057-.084 3.52-.215 4.264-.424 1.263-.358 2.254-1.41 2.592-2.749.16-.63.274-1.47.353-2.477a44.45 44.45 0 00.116-2.285c.008-.27.01-.525.013-.75 0-.082.003-.152.003-.213v-.156zm-1.898.145c0 .059 0 .123-.003.198l-.013.717a39.815 39.815 0 01-.111 2.174c-.071.898-.171 1.635-.295 2.128-.164.645-.644 1.155-1.25 1.326-.554.156-1.949.281-3.845.357a113.67 113.67 0 01-4.02.086h-.755l-.996-.008c-1.031-.014-2.062-.04-3.025-.078-1.895-.078-3.293-.201-3.844-.357-.606-.173-1.086-.681-1.25-1.326-.124-.493-.224-1.23-.295-2.128a42.02 42.02 0 01-.11-2.174c-.009-.26-.011-.502-.014-.717 0-.075-.003-.142-.003-.198v-.134c0-.059 0-.123.003-.198l.013-.717a40.91 40.91 0 01.111-2.174c.071-.898.171-1.635.295-2.128.164-.645.644-1.156 1.25-1.326.554-.156 1.949-.282 3.844-.357a113.216 113.216 0 014.021-.086h.755l.996.008a113.5 113.5 0 013.024.078c1.896.078 3.294.201 3.845.357.606.173 1.086.681 1.25 1.326.124.493.224 1.23.295 2.128.055.69.09 1.432.11 2.174.009.26.011.502.014.717 0 .075.003.142.003.198v.134zM9.466 12.804l6.117-3.767-6.117-3.71v7.477z" fill="#0B141D"/></svg>