<svg width="19" height="18" fill="none" xmlns="http://www.w3.org/2000/svg"><path d="M12.688 10.252a4.517 4.517 0 00-.8-.685 6.442 6.442 0 002.34-3.658.818.818 0 10-1.596-.363 4.793 4.793 0 01-2.471 3.193v-3.01a.784.784 0 00-.036-.177.834.834 0 00-.029-.14.812.812 0 00-.136-.204c-.015-.017-.022-.04-.038-.056a.82.82 0 00-.201-.137c-.022-.011-.037-.03-.06-.039a.835.835 0 00-.192-.04.773.773 0 00-.125-.025l-.535-.002h-.002a.814.814 0 00-.287 1.578v4.001a9.251 9.251 0 01-2.462-4.896.818.818 0 00-1.614.274 10.91 10.91 0 004.418 7.072.93.93 0 00.105.052.815.815 0 00.375.102.803.803 0 00.347-.083c.008-.004.017-.002.025-.006a.813.813 0 00.197-.144c.012-.011.02-.024.03-.037a.806.806 0 00.162-.264.81.81 0 00.057-.284v-1.74c.507.15.965.434 1.322.823l1.348 1.47a.818.818 0 001.206-1.106l-1.348-1.47zM12.14 0H7.12C2.08 0 .625 1.455.625 6.486v5.02C.625 16.544 2.08 18 7.111 18h5.02c5.038 0 6.494-1.455 6.494-6.486v-5.02C18.625 1.456 17.17 0 12.139 0zm4.85 11.514c0 4.124-.727 4.85-4.859 4.85H7.112c-4.125 0-4.85-.727-4.85-4.859V6.487c0-4.125.726-4.85 4.858-4.85h5.02c4.123 0 4.849.726 4.849 4.858v5.02z" fill="#0B141D"/></svg>