<svg width="19" height="19" fill="none" xmlns="http://www.w3.org/2000/svg"><path d="M9.622 4.372a4.624 4.624 0 100 9.248 4.624 4.624 0 000-9.248zm0 7.627a3.004 3.004 0 110-6.008 3.004 3.004 0 010 6.008zM14.43 5.28a1.078 1.078 0 100-2.156 1.078 1.078 0 000 2.156z" fill="#0B141D"/><path d="M18.156 3.106A4.605 4.605 0 0015.523.474a6.606 6.606 0 00-2.186-.42C12.374.012 12.069 0 9.627 0s-2.755 0-3.71.054a6.554 6.554 0 00-2.184.42A4.6 4.6 0 001.1 3.106a6.585 6.585 0 00-.419 2.186c-.043.962-.056 1.267-.056 3.71 0 2.442 0 2.753.056 3.71.015.748.156 1.486.419 2.187a4.61 4.61 0 002.634 2.632 6.583 6.583 0 002.185.45c.963.042 1.268.055 3.71.055s2.755 0 3.71-.055a6.616 6.616 0 002.186-.419 4.614 4.614 0 002.633-2.633c.263-.7.404-1.438.419-2.186.043-.962.056-1.267.056-3.71s0-2.753-.056-3.71a6.58 6.58 0 00-.421-2.217zm-1.218 9.532a5.041 5.041 0 01-.311 1.688 2.988 2.988 0 01-1.712 1.711 4.99 4.99 0 01-1.67.311c-.95.044-1.218.055-3.654.055-2.438 0-2.687 0-3.655-.055a4.961 4.961 0 01-1.669-.311 2.985 2.985 0 01-1.719-1.711 5.08 5.08 0 01-.311-1.669c-.043-.95-.053-1.218-.053-3.654 0-2.437 0-2.686.053-3.655a5.038 5.038 0 01.311-1.687c.305-.789.93-1.41 1.719-1.712a5.01 5.01 0 011.669-.311c.951-.043 1.218-.055 3.655-.055s2.687 0 3.654.055a4.96 4.96 0 011.67.311 2.992 2.992 0 011.712 1.712c.197.535.302 1.1.311 1.669.043.951.054 1.218.054 3.655 0 2.436 0 2.698-.043 3.654h-.011v-.001z" fill="#0B141D"/></svg>